
<svg width="401" height="85" viewBox="0 0 401 85" fill="none" xmlns="http://www.w3.org/2000/svg">
<path d="M34.8403 7.81738L14.4142 48.031L10.236 45.9345C5.3778 43.497 4.39292 37.0232 8.30881 33.267L34.8403 7.81738Z" fill="#5A6372"/>
<path d="M25.0919 30.4058L29.2701 32.502C34.1282 34.9399 35.1132 41.4136 31.1974 45.1699L4.66577 70.6194L25.0919 30.4058Z" fill="#5A6372"/>
<path d="M53.22 51.2954C50.26 51.2954 47.5934 50.6687 45.22 49.4154C42.8734 48.162 41.02 46.4287 39.66 44.2154C38.3267 42.002 37.66 39.5087 37.66 36.7354C37.66 33.962 38.3267 31.4687 39.66 29.2554C41.02 27.042 42.8734 25.3087 45.22 24.0553C47.5934 22.802 50.26 22.1753 53.22 22.1753C56.18 22.1753 58.8334 22.802 61.1801 24.0553C63.5534 25.3087 65.4067 27.042 66.7401 29.2554C68.1001 31.4687 68.7801 33.962 68.7801 36.7354C68.7801 39.5087 68.1001 42.002 66.7401 44.2154C65.4067 46.4287 63.5534 48.162 61.1801 49.4154C58.8334 50.6687 56.18 51.2954 53.22 51.2954ZM53.22 44.7354C54.6334 44.7354 55.9134 44.402 57.0601 43.7354C58.2067 43.0687 59.1134 42.1354 59.78 40.9354C60.4467 39.7087 60.7801 38.3087 60.7801 36.7354C60.7801 35.162 60.4467 33.7754 59.78 32.5754C59.1134 31.3487 58.2067 30.402 57.0601 29.7354C55.9134 29.0687 54.6334 28.7354 53.22 28.7354C51.8067 28.7354 50.5267 29.0687 49.38 29.7354C48.2334 30.402 47.3267 31.3487 46.66 32.5754C45.9934 33.7754 45.66 35.162 45.66 36.7354C45.66 38.3087 45.9934 39.7087 46.66 40.9354C47.3267 42.1354 48.2334 43.0687 49.38 43.7354C50.5267 44.402 51.8067 44.7354 53.22 44.7354ZM73.3282 22.7353H81.2482V44.4554H94.6082V50.7354H73.3282V22.7353ZM109.302 28.8553V44.6154H113.822V50.7354H96.8222V44.6154H101.382V28.8553H96.8222V22.7353H113.822V28.8553H109.302ZM118.503 22.7353H131.743C134.81 22.7353 137.53 23.3087 139.903 24.4554C142.277 25.602 144.117 27.2287 145.423 29.3354C146.73 31.442 147.383 33.9087 147.383 36.7354C147.383 39.562 146.73 42.0287 145.423 44.1354C144.117 46.242 142.277 47.8687 139.903 49.0154C137.53 50.162 134.81 50.7354 131.743 50.7354H118.503V22.7353ZM131.423 44.4154C133.823 44.4154 135.743 43.7354 137.183 42.3754C138.65 41.0154 139.383 39.1354 139.383 36.7354C139.383 34.3354 138.65 32.4554 137.183 31.0954C135.743 29.7353 133.823 29.0553 131.423 29.0553H126.423V44.4154H131.423ZM161.79 51.2954C159.523 51.2954 157.323 51.0154 155.19 50.4554C153.057 49.8954 151.323 49.1487 149.99 48.2154L152.59 42.3754C153.843 43.202 155.297 43.8687 156.95 44.3754C158.603 44.882 160.23 45.1354 161.83 45.1354C164.87 45.1354 166.39 44.3754 166.39 42.8554C166.39 42.0554 165.95 41.4687 165.07 41.0954C164.217 40.6954 162.83 40.282 160.91 39.8554C158.803 39.402 157.043 38.922 155.63 38.4154C154.217 37.882 153.003 37.042 151.99 35.8954C150.977 34.7487 150.47 33.202 150.47 31.2554C150.47 29.5487 150.937 28.0154 151.87 26.6553C152.803 25.2687 154.19 24.1754 156.03 23.3754C157.897 22.5754 160.177 22.1753 162.87 22.1753C164.71 22.1753 166.523 22.3887 168.31 22.8154C170.097 23.2154 171.67 23.8154 173.03 24.6153L170.59 30.4953C167.923 29.0554 165.337 28.3354 162.83 28.3354C161.257 28.3354 160.11 28.5754 159.39 29.0553C158.67 29.5087 158.31 30.1087 158.31 30.8554C158.31 31.602 158.737 32.162 159.59 32.5354C160.443 32.9087 161.817 33.2954 163.71 33.6954C165.843 34.1487 167.603 34.642 168.99 35.1754C170.403 35.682 171.617 36.5087 172.63 37.6554C173.67 38.7754 174.19 40.3087 174.19 42.2554C174.19 43.9354 173.723 45.4554 172.79 46.8154C171.857 48.1754 170.457 49.2687 168.59 50.0954C166.723 50.8954 164.457 51.2954 161.79 51.2954Z" fill="#5A6372"/>
<path d="M195.92 51L186.48 23H189.52L198.36 49.36H196.84L205.96 23H208.68L217.68 49.36H216.24L225.16 23H228L218.56 51H215.44L206.84 26H207.64L199 51H195.92ZM239.786 51.2C237.759 51.2 235.932 50.7467 234.306 49.84C232.706 48.9067 231.439 47.64 230.506 46.04C229.572 44.4133 229.106 42.56 229.106 40.48C229.106 38.3733 229.572 36.52 230.506 34.92C231.439 33.32 232.706 32.0667 234.306 31.16C235.906 30.2533 237.732 29.8 239.786 29.8C241.866 29.8 243.706 30.2533 245.306 31.16C246.932 32.0667 248.199 33.32 249.106 34.92C250.039 36.52 250.506 38.3733 250.506 40.48C250.506 42.56 250.039 44.4133 249.106 46.04C248.199 47.64 246.932 48.9067 245.306 49.84C243.679 50.7467 241.839 51.2 239.786 51.2ZM239.786 48.68C241.306 48.68 242.652 48.3467 243.826 47.68C244.999 46.9867 245.919 46.0267 246.586 44.8C247.279 43.5467 247.626 42.1067 247.626 40.48C247.626 38.8267 247.279 37.3867 246.586 36.16C245.919 34.9333 244.999 33.9867 243.826 33.32C242.652 32.6267 241.319 32.28 239.826 32.28C238.332 32.28 236.999 32.6267 235.826 33.32C234.652 33.9867 233.719 34.9333 233.026 36.16C232.332 37.3867 231.986 38.8267 231.986 40.48C231.986 42.1067 232.332 43.5467 233.026 44.8C233.719 46.0267 234.652 46.9867 235.826 47.68C236.999 48.3467 238.319 48.68 239.786 48.68ZM256.304 51V30H259.024V35.72L258.744 34.72C259.33 33.12 260.317 31.9067 261.704 31.08C263.09 30.2267 264.81 29.8 266.864 29.8V32.56C266.757 32.56 266.65 32.56 266.544 32.56C266.437 32.5333 266.33 32.52 266.224 32.52C264.01 32.52 262.277 33.2 261.024 34.56C259.77 35.8933 259.144 37.8 259.144 40.28V51H256.304ZM274.286 45.56L274.366 41.92L287.446 30H290.926L281.686 38.84L280.086 40.2L274.286 45.56ZM272.046 51V21.32H274.886V51H272.046ZM288.326 51L279.566 40.08L281.406 37.88L291.806 51H288.326ZM301.084 51.2C299.351 51.2 297.711 50.96 296.164 50.48C294.618 49.9733 293.404 49.3467 292.524 48.6L293.804 46.36C294.658 47 295.751 47.56 297.084 48.04C298.418 48.4933 299.818 48.72 301.284 48.72C303.284 48.72 304.724 48.4133 305.604 47.8C306.484 47.16 306.924 46.32 306.924 45.28C306.924 44.5067 306.671 43.9067 306.164 43.48C305.684 43.0267 305.044 42.6933 304.244 42.48C303.444 42.24 302.551 42.04 301.564 41.88C300.578 41.72 299.591 41.5333 298.604 41.32C297.644 41.1067 296.764 40.8 295.964 40.4C295.164 39.9733 294.511 39.4 294.004 38.68C293.524 37.96 293.284 37 293.284 35.8C293.284 34.6533 293.604 33.6267 294.244 32.72C294.884 31.8133 295.818 31.1067 297.044 30.6C298.298 30.0667 299.818 29.8 301.604 29.8C302.964 29.8 304.324 29.9867 305.684 30.36C307.044 30.7067 308.164 31.1733 309.044 31.76L307.804 34.04C306.871 33.4 305.871 32.9467 304.804 32.68C303.738 32.3867 302.671 32.24 301.604 32.24C299.711 32.24 298.311 32.5733 297.404 33.24C296.524 33.88 296.084 34.7067 296.084 35.72C296.084 36.52 296.324 37.1467 296.804 37.6C297.311 38.0533 297.964 38.4133 298.764 38.68C299.591 38.92 300.484 39.12 301.444 39.28C302.431 39.44 303.404 39.64 304.364 39.88C305.351 40.0933 306.244 40.4 307.044 40.8C307.871 41.1733 308.524 41.72 309.004 42.44C309.511 43.1333 309.764 44.0533 309.764 45.2C309.764 46.4267 309.418 47.4933 308.724 48.4C308.058 49.28 307.071 49.9733 305.764 50.48C304.484 50.96 302.924 51.2 301.084 51.2ZM325.696 29.8C327.402 29.8 328.896 30.1333 330.176 30.8C331.482 31.44 332.496 32.4267 333.216 33.76C333.962 35.0933 334.336 36.7733 334.336 38.8V51H331.496V39.08C331.496 36.8667 330.936 35.2 329.816 34.08C328.722 32.9333 327.176 32.36 325.176 32.36C323.682 32.36 322.376 32.6667 321.256 33.28C320.162 33.8667 319.309 34.7333 318.696 35.88C318.109 37 317.816 38.36 317.816 39.96V51H314.976V21.32H317.816V35.76L317.256 34.68C317.922 33.16 318.989 31.9733 320.456 31.12C321.922 30.24 323.669 29.8 325.696 29.8ZM350.567 51.2C348.54 51.2 346.714 50.7467 345.087 49.84C343.487 48.9067 342.22 47.64 341.287 46.04C340.354 44.4133 339.887 42.56 339.887 40.48C339.887 38.3733 340.354 36.52 341.287 34.92C342.22 33.32 343.487 32.0667 345.087 31.16C346.687 30.2533 348.514 29.8 350.567 29.8C352.647 29.8 354.487 30.2533 356.087 31.16C357.714 32.0667 358.98 33.32 359.887 34.92C360.82 36.52 361.287 38.3733 361.287 40.48C361.287 42.56 360.82 44.4133 359.887 46.04C358.98 47.64 357.714 48.9067 356.087 49.84C354.46 50.7467 352.62 51.2 350.567 51.2ZM350.567 48.68C352.087 48.68 353.434 48.3467 354.607 47.68C355.78 46.9867 356.7 46.0267 357.367 44.8C358.06 43.5467 358.407 42.1067 358.407 40.48C358.407 38.8267 358.06 37.3867 357.367 36.16C356.7 34.9333 355.78 33.9867 354.607 33.32C353.434 32.6267 352.1 32.28 350.607 32.28C349.114 32.28 347.78 32.6267 346.607 33.32C345.434 33.9867 344.5 34.9333 343.807 36.16C343.114 37.3867 342.767 38.8267 342.767 40.48C342.767 42.1067 343.114 43.5467 343.807 44.8C344.5 46.0267 345.434 46.9867 346.607 47.68C347.78 48.3467 349.1 48.68 350.567 48.68ZM377.925 51.2C376.112 51.2 374.472 50.7867 373.005 49.96C371.538 49.1067 370.365 47.8933 369.485 46.32C368.632 44.72 368.205 42.7733 368.205 40.48C368.205 38.1867 368.632 36.2533 369.485 34.68C370.338 33.08 371.498 31.8667 372.965 31.04C374.432 30.2133 376.085 29.8 377.925 29.8C379.925 29.8 381.712 30.2533 383.285 31.16C384.885 32.04 386.138 33.2933 387.045 34.92C387.952 36.52 388.405 38.3733 388.405 40.48C388.405 42.6133 387.952 44.48 387.045 46.08C386.138 47.68 384.885 48.9333 383.285 49.84C381.712 50.7467 379.925 51.2 377.925 51.2ZM367.085 58.76V30H369.805V36.32L369.525 40.52L369.925 44.76V58.76H367.085ZM377.725 48.68C379.218 48.68 380.552 48.3467 381.725 47.68C382.898 46.9867 383.832 46.0267 384.525 44.8C385.218 43.5467 385.565 42.1067 385.565 40.48C385.565 38.8533 385.218 37.4267 384.525 36.2C383.832 34.9733 382.898 34.0133 381.725 33.32C380.552 32.6267 379.218 32.28 377.725 32.28C376.232 32.28 374.885 32.6267 373.685 33.32C372.512 34.0133 371.578 34.9733 370.885 36.2C370.218 37.4267 369.885 38.8533 369.885 40.48C369.885 42.1067 370.218 43.5467 370.885 44.8C371.578 46.0267 372.512 46.9867 373.685 47.68C374.885 48.3467 376.232 48.68 377.725 48.68Z" fill="#5A6372"/>
</svg>
